<mxfile modified="2020-11-20T10:09:34.494Z" host="app.diagrams.net" agent="5.0 (Windows NT 10.0; Win64; x64) AppleWebKit/537.36 (KHTML, like Gecko) Chrome/87.0.4280.66 Safari/537.36" etag="Y7Y_T-SFiBGnep8knXgZ" version="13.10.0" type="github">
  <diagram id="Ht1M8jgEwFfnCIfOTk4-" name="Page-1">
    <mxGraphModel dx="1422" dy="794" grid="1" gridSize="10" guides="1" tooltips="1" connect="1" arrows="1" fold="1" page="1" pageScale="1" pageWidth="1169" pageHeight="827" math="0" shadow="0">
      <root>
        <mxCell id="0" />
        <mxCell id="1" parent="0" />
        <mxCell id="GE2mV03N9EkGOlArwGm8-6" value="服务器" style="rounded=0;whiteSpace=wrap;html=1;sketch=0;fillColor=none;" vertex="1" parent="1">
          <mxGeometry x="880" y="44" width="240" height="740" as="geometry" />
        </mxCell>
        <mxCell id="GE2mV03N9EkGOlArwGm8-7" value="" style="rounded=0;whiteSpace=wrap;html=1;sketch=0;fillColor=none;" vertex="1" parent="1">
          <mxGeometry x="140" y="44" width="630" height="740" as="geometry" />
        </mxCell>
        <mxCell id="GE2mV03N9EkGOlArwGm8-8" value="&lt;font style=&quot;font-size: 18px&quot;&gt;全局变量&lt;/font&gt;" style="rounded=0;whiteSpace=wrap;html=1;sketch=0;fillColor=none;dashed=1;" vertex="1" parent="1">
          <mxGeometry x="150" y="56" width="610" height="60" as="geometry" />
        </mxCell>
        <mxCell id="GE2mV03N9EkGOlArwGm8-10" value="&lt;font style=&quot;font-size: 18px&quot;&gt;前端拦截器&lt;/font&gt;" style="rounded=0;whiteSpace=wrap;html=1;sketch=0;fillColor=none;dashed=1;" vertex="1" parent="1">
          <mxGeometry x="450" y="140" width="310" height="630" as="geometry" />
        </mxCell>
        <mxCell id="GE2mV03N9EkGOlArwGm8-12" value="" style="rounded=0;whiteSpace=wrap;html=1;sketch=0;fillColor=none;dashed=1;" vertex="1" parent="1">
          <mxGeometry x="150" y="140" width="270" height="280" as="geometry" />
        </mxCell>
        <mxCell id="GE2mV03N9EkGOlArwGm8-13" value="请求a" style="rounded=0;whiteSpace=wrap;html=1;dashed=1;sketch=0;fillColor=none;" vertex="1" parent="1">
          <mxGeometry x="290" y="157.25" width="120" height="60" as="geometry" />
        </mxCell>
        <mxCell id="GE2mV03N9EkGOlArwGm8-15" value="请求b" style="rounded=0;whiteSpace=wrap;html=1;dashed=1;sketch=0;fillColor=none;" vertex="1" parent="1">
          <mxGeometry x="290" y="247.25" width="120" height="60" as="geometry" />
        </mxCell>
        <mxCell id="GE2mV03N9EkGOlArwGm8-86" style="edgeStyle=orthogonalEdgeStyle;curved=1;sketch=0;orthogonalLoop=1;jettySize=auto;html=1;entryX=0;entryY=0.5;entryDx=0;entryDy=0;strokeColor=#0000FF;" edge="1" parent="1" source="GE2mV03N9EkGOlArwGm8-17" target="GE2mV03N9EkGOlArwGm8-44">
          <mxGeometry relative="1" as="geometry" />
        </mxCell>
        <mxCell id="GE2mV03N9EkGOlArwGm8-17" value="..." style="rounded=0;whiteSpace=wrap;html=1;dashed=1;sketch=0;fillColor=none;" vertex="1" parent="1">
          <mxGeometry x="290" y="340.75" width="120" height="60" as="geometry" />
        </mxCell>
        <mxCell id="GE2mV03N9EkGOlArwGm8-82" style="edgeStyle=orthogonalEdgeStyle;curved=1;sketch=0;orthogonalLoop=1;jettySize=auto;html=1;entryX=0.031;entryY=0.033;entryDx=0;entryDy=0;entryPerimeter=0;strokeColor=#0000FF;" edge="1" parent="1" source="GE2mV03N9EkGOlArwGm8-18" target="GE2mV03N9EkGOlArwGm8-44">
          <mxGeometry relative="1" as="geometry" />
        </mxCell>
        <mxCell id="GE2mV03N9EkGOlArwGm8-83" value="提供状态" style="edgeLabel;html=1;align=center;verticalAlign=middle;resizable=0;points=[];" vertex="1" connectable="0" parent="GE2mV03N9EkGOlArwGm8-82">
          <mxGeometry x="-0.8113" y="-4" relative="1" as="geometry">
            <mxPoint as="offset" />
          </mxGeometry>
        </mxCell>
        <mxCell id="GE2mV03N9EkGOlArwGm8-18" value="token状态" style="rounded=0;whiteSpace=wrap;html=1;sketch=0;fillColor=none;" vertex="1" parent="1">
          <mxGeometry x="500" y="76" width="60" height="20" as="geometry" />
        </mxCell>
        <mxCell id="GE2mV03N9EkGOlArwGm8-19" value="refresh 状态" style="rounded=0;whiteSpace=wrap;html=1;sketch=0;fillColor=none;" vertex="1" parent="1">
          <mxGeometry x="670" y="76" width="80" height="20" as="geometry" />
        </mxCell>
        <mxCell id="GE2mV03N9EkGOlArwGm8-20" value="" style="rounded=0;whiteSpace=wrap;html=1;sketch=0;fillColor=none;dashed=1;" vertex="1" parent="1">
          <mxGeometry x="150" y="490" width="270" height="280" as="geometry" />
        </mxCell>
        <mxCell id="GE2mV03N9EkGOlArwGm8-21" value="请求c" style="rounded=0;whiteSpace=wrap;html=1;dashed=1;sketch=0;fillColor=none;" vertex="1" parent="1">
          <mxGeometry x="290" y="510" width="120" height="60" as="geometry" />
        </mxCell>
        <mxCell id="GE2mV03N9EkGOlArwGm8-22" value="请求d" style="rounded=0;whiteSpace=wrap;html=1;dashed=1;sketch=0;fillColor=none;" vertex="1" parent="1">
          <mxGeometry x="290" y="590" width="120" height="60" as="geometry" />
        </mxCell>
        <mxCell id="GE2mV03N9EkGOlArwGm8-53" style="edgeStyle=orthogonalEdgeStyle;curved=1;sketch=0;orthogonalLoop=1;jettySize=auto;html=1;entryX=0;entryY=0.5;entryDx=0;entryDy=0;strokeColor=#0000FF;" edge="1" parent="1" source="GE2mV03N9EkGOlArwGm8-23" target="GE2mV03N9EkGOlArwGm8-44">
          <mxGeometry relative="1" as="geometry" />
        </mxCell>
        <mxCell id="GE2mV03N9EkGOlArwGm8-23" value="..." style="rounded=0;whiteSpace=wrap;html=1;dashed=1;sketch=0;fillColor=none;" vertex="1" parent="1">
          <mxGeometry x="290" y="670" width="120" height="60" as="geometry" />
        </mxCell>
        <mxCell id="GE2mV03N9EkGOlArwGm8-24" value="项目1" style="rounded=0;whiteSpace=wrap;html=1;sketch=0;fillColor=none;" vertex="1" parent="1">
          <mxGeometry x="160" y="260" width="120" height="60" as="geometry" />
        </mxCell>
        <mxCell id="GE2mV03N9EkGOlArwGm8-25" value="项目2" style="rounded=0;whiteSpace=wrap;html=1;sketch=0;fillColor=none;" vertex="1" parent="1">
          <mxGeometry x="160" y="590" width="120" height="60" as="geometry" />
        </mxCell>
        <mxCell id="GE2mV03N9EkGOlArwGm8-28" value="更新token" style="rounded=0;whiteSpace=wrap;html=1;sketch=0;fillColor=none;dashed=1;" vertex="1" parent="1">
          <mxGeometry x="910" y="200" width="180" height="60" as="geometry" />
        </mxCell>
        <mxCell id="GE2mV03N9EkGOlArwGm8-70" style="edgeStyle=orthogonalEdgeStyle;curved=1;sketch=0;orthogonalLoop=1;jettySize=auto;html=1;entryX=1;entryY=0.5;entryDx=0;entryDy=0;strokeColor=#0000FF;" edge="1" parent="1" source="GE2mV03N9EkGOlArwGm8-29" target="GE2mV03N9EkGOlArwGm8-64">
          <mxGeometry relative="1" as="geometry" />
        </mxCell>
        <mxCell id="GE2mV03N9EkGOlArwGm8-87" value="token失效" style="edgeLabel;html=1;align=center;verticalAlign=middle;resizable=0;points=[];" vertex="1" connectable="0" parent="GE2mV03N9EkGOlArwGm8-70">
          <mxGeometry x="-0.145" y="-1" relative="1" as="geometry">
            <mxPoint as="offset" />
          </mxGeometry>
        </mxCell>
        <mxCell id="GE2mV03N9EkGOlArwGm8-29" value="其他api" style="rounded=0;whiteSpace=wrap;html=1;dashed=1;sketch=0;fillColor=none;" vertex="1" parent="1">
          <mxGeometry x="910" y="290" width="180" height="60" as="geometry" />
        </mxCell>
        <mxCell id="GE2mV03N9EkGOlArwGm8-69" style="edgeStyle=orthogonalEdgeStyle;curved=1;sketch=0;orthogonalLoop=1;jettySize=auto;html=1;entryX=0;entryY=1;entryDx=0;entryDy=0;strokeColor=#0000FF;" edge="1" parent="1" source="GE2mV03N9EkGOlArwGm8-44" target="GE2mV03N9EkGOlArwGm8-29">
          <mxGeometry relative="1" as="geometry" />
        </mxCell>
        <mxCell id="GE2mV03N9EkGOlArwGm8-88" value="请求" style="edgeLabel;html=1;align=center;verticalAlign=middle;resizable=0;points=[];" vertex="1" connectable="0" parent="GE2mV03N9EkGOlArwGm8-69">
          <mxGeometry x="-0.0118" y="38" relative="1" as="geometry">
            <mxPoint as="offset" />
          </mxGeometry>
        </mxCell>
        <mxCell id="GE2mV03N9EkGOlArwGm8-44" value="判断token状态a&lt;br&gt;有效，发起请求，&lt;br&gt;失效，等待新状态返回" style="rounded=0;whiteSpace=wrap;html=1;dashed=1;sketch=0;fillColor=none;" vertex="1" parent="1">
          <mxGeometry x="460" y="670" width="290" height="60" as="geometry" />
        </mxCell>
        <mxCell id="GE2mV03N9EkGOlArwGm8-71" style="edgeStyle=orthogonalEdgeStyle;curved=1;sketch=0;orthogonalLoop=1;jettySize=auto;html=1;entryX=1;entryY=0.75;entryDx=0;entryDy=0;strokeColor=#0000FF;" edge="1" parent="1" source="GE2mV03N9EkGOlArwGm8-64" target="GE2mV03N9EkGOlArwGm8-18">
          <mxGeometry relative="1" as="geometry">
            <Array as="points">
              <mxPoint x="560" y="91" />
            </Array>
          </mxGeometry>
        </mxCell>
        <mxCell id="GE2mV03N9EkGOlArwGm8-73" value="标记失效" style="edgeLabel;html=1;align=center;verticalAlign=middle;resizable=0;points=[];" vertex="1" connectable="0" parent="GE2mV03N9EkGOlArwGm8-71">
          <mxGeometry x="-0.0681" y="2" relative="1" as="geometry">
            <mxPoint as="offset" />
          </mxGeometry>
        </mxCell>
        <mxCell id="GE2mV03N9EkGOlArwGm8-89" style="edgeStyle=orthogonalEdgeStyle;curved=1;sketch=0;orthogonalLoop=1;jettySize=auto;html=1;entryX=0.5;entryY=1;entryDx=0;entryDy=0;strokeColor=#0000FF;" edge="1" parent="1" source="GE2mV03N9EkGOlArwGm8-64" target="GE2mV03N9EkGOlArwGm8-19">
          <mxGeometry relative="1" as="geometry" />
        </mxCell>
        <mxCell id="GE2mV03N9EkGOlArwGm8-90" value="标记刷新动作" style="edgeLabel;html=1;align=center;verticalAlign=middle;resizable=0;points=[];" vertex="1" connectable="0" parent="GE2mV03N9EkGOlArwGm8-89">
          <mxGeometry x="0.0959" y="10" relative="1" as="geometry">
            <mxPoint as="offset" />
          </mxGeometry>
        </mxCell>
        <mxCell id="GE2mV03N9EkGOlArwGm8-64" value="&lt;span&gt;拦截所有请求和相应&lt;/span&gt;&lt;br&gt;&lt;span&gt;记录失效token状态a和&lt;/span&gt;&lt;br&gt;&lt;span&gt;tokn后的状态b&lt;/span&gt;" style="rounded=0;whiteSpace=wrap;html=1;dashed=1;sketch=0;fillColor=none;" vertex="1" parent="1">
          <mxGeometry x="500" y="480" width="250" height="60" as="geometry" />
        </mxCell>
        <mxCell id="GE2mV03N9EkGOlArwGm8-79" value="&lt;span&gt;拦截所有请求和相应&lt;/span&gt;&lt;br&gt;&lt;span&gt;记录失效token状态a和&lt;/span&gt;&lt;br&gt;&lt;span&gt;tokn后的状态b&lt;/span&gt;" style="rounded=0;whiteSpace=wrap;html=1;dashed=1;sketch=0;fillColor=none;" vertex="1" parent="1">
          <mxGeometry x="500" y="570" width="250" height="60" as="geometry" />
        </mxCell>
      </root>
    </mxGraphModel>
  </diagram>
</mxfile>
